<svg width="29" height="26" viewBox="0 0 29 26" xmlns="http://www.w3.org/2000/svg">
<path d="M18.8662 5.83459C18.0892 5.83467 17.3149 5.92485 16.5587 6.10334C16.3337 5.77472 16.083 5.46456 15.8087 5.17584L16.7549 3.82334C16.9832 3.49746 17.0726 3.09425 17.0036 2.70242C16.9345 2.31058 16.7127 1.96222 16.3868 1.73397C16.0609 1.50572 15.6577 1.41627 15.2659 1.48531C14.874 1.55435 14.5257 1.77621 14.2974 2.10209L13.3499 3.45959C12.4711 3.07477 11.5264 2.86259 10.5674 2.83459L10.2799 1.20959C10.2039 0.824436 9.97994 0.484427 9.65606 0.262548C9.33219 0.0406682 8.93424 -0.0453953 8.54763 0.0228305C8.16101 0.0910563 7.81656 0.308133 7.58819 0.627466C7.35983 0.946799 7.26576 1.34293 7.32617 1.73084L7.61367 3.35584C6.7223 3.71008 5.90716 4.23201 5.21242 4.89334L3.85492 3.94209C3.52904 3.71384 3.12583 3.6244 2.73399 3.69343C2.34216 3.76247 1.9938 3.98433 1.76555 4.31022C1.53729 4.6361 1.44785 5.03931 1.51689 5.43115C1.58592 5.82298 1.80779 6.17134 2.13367 6.39959L3.49117 7.34834C3.10531 8.22641 2.89307 9.17087 2.86617 10.1296L1.24117 10.4171C0.871472 10.4819 0.539485 10.6829 0.310746 10.9804C0.0820082 11.278 -0.0268593 11.6505 0.00563509 12.0245C0.0381294 12.3984 0.209624 12.7465 0.486266 13.0002C0.762907 13.2538 1.12459 13.3946 1.49992 13.3946C1.5879 13.3944 1.6757 13.3869 1.76242 13.3721L3.38742 13.0846C3.51012 13.396 3.65379 13.6988 3.81742 13.9908C2.86844 14.9809 2.23119 16.228 1.98482 17.5771C1.73845 18.9262 1.89381 20.318 2.4316 21.5796C2.96939 22.8411 3.86592 23.917 5.00985 24.6734C6.15379 25.4299 7.49474 25.8337 8.86617 25.8346H18.8662C21.5183 25.8346 24.0619 24.781 25.9372 22.9057C27.8126 21.0303 28.8662 18.4868 28.8662 15.8346C28.8662 13.1824 27.8126 10.6389 25.9372 8.76353C24.0619 6.88816 21.5183 5.83459 18.8662 5.83459ZM10.3662 5.83459C10.9876 5.83509 11.6022 5.9643 12.1712 6.21407C12.7403 6.46384 13.2514 6.82876 13.6724 7.28584C11.893 8.36506 10.4927 9.97023 9.66492 11.8796C9.39974 11.8495 9.13306 11.8345 8.86617 11.8346C7.99666 11.8345 7.13479 11.9969 6.32492 12.3133C5.98904 11.6273 5.83332 10.8671 5.87242 10.1042C5.91152 9.3414 6.14416 8.60107 6.54842 7.95298C6.95268 7.30488 7.51526 6.77036 8.18317 6.39975C8.85108 6.02915 9.60233 5.83465 10.3662 5.83459ZM18.8662 22.8346H8.86617C7.80531 22.8346 6.78789 22.4132 6.03774 21.663C5.2876 20.9129 4.86617 19.8955 4.86617 18.8346C4.86617 17.7737 5.2876 16.7563 6.03774 16.0062C6.78789 15.256 7.80531 14.8346 8.86617 14.8346H8.90117C8.88742 14.9721 8.87617 15.1096 8.86867 15.2471C8.84546 15.6449 8.98124 16.0357 9.24614 16.3334C9.51103 16.6311 9.88335 16.8114 10.2812 16.8346C10.679 16.8578 11.0697 16.722 11.3675 16.4571C11.6652 16.1922 11.8455 15.8199 11.8687 15.4221C11.8951 14.9577 11.968 14.497 12.0862 14.0471L12.1049 13.9783C12.4496 12.7183 13.1395 11.5797 14.0969 10.6911C15.0544 9.80239 16.2411 9.19903 17.5233 8.94907C18.8055 8.69912 20.132 8.81253 21.3531 9.2765C22.5742 9.74047 23.6413 10.5365 24.434 11.5748C25.2267 12.6131 25.7134 13.8523 25.8391 15.1525C25.9649 16.4528 25.7247 17.7623 25.1456 18.9332C24.5666 20.1042 23.6718 21.09 22.5622 21.7793C21.4526 22.4687 20.1725 22.8342 18.8662 22.8346Z"/>
</svg>

